<svg width="30" height="30" viewBox="0 0 30 30" fill="none" xmlns="http://www.w3.org/2000/svg">
<path d="M29.495 26.3288L23.0224 16.7583C22.8701 16.5304 22.6416 16.3026 22.4132 16.1507L21.8801 15.7709C21.2709 15.3151 21.2709 14.4796 21.8801 14.0239L22.337 13.7201C22.5655 13.5681 22.7939 13.3403 22.9462 13.1124L29.5712 3.69384C30.1042 2.85833 30.1804 1.79494 29.5712 1.03538C28.8097 0.0479486 27.439 -0.179918 26.4491 0.503688L16.8543 6.95996C16.6259 7.11188 16.3974 7.33974 16.2451 7.56761L15.8644 8.09931C15.4075 8.70695 14.5698 8.70695 14.1129 8.09931L13.8083 7.64356C13.656 7.4157 13.4276 7.18783 13.1992 7.03592L3.75668 0.427727C2.91904 -0.103966 1.85295 -0.179922 1.09146 0.427727C0.101526 1.18729 -0.126918 2.5545 0.558423 3.54193L7.03109 13.1124C7.18338 13.3403 7.41183 13.5681 7.64028 13.7201L8.17332 14.0998C8.78251 14.5556 8.78251 15.3911 8.17332 15.8468L7.71642 16.1507C7.48798 16.3026 7.25954 16.5304 7.10724 16.7583L0.406127 26.2528C-0.203065 27.1643 -0.126914 28.3796 0.634576 29.1392C1.39607 29.8987 2.61444 30.0506 3.52823 29.443L13.123 22.9867C13.3515 22.8348 13.5799 22.6069 13.7322 22.3791L14.1129 21.8474C14.5698 21.2397 15.4075 21.2397 15.8644 21.8474L16.169 22.3031C16.3213 22.531 16.5497 22.7588 16.7782 22.9108L26.3729 29.5949C27.2867 30.2025 28.5051 30.1266 29.2666 29.367C30.0281 28.4556 30.1042 27.2403 29.495 26.3288Z" fill="#ffffff"/>
</svg>
